<svg id="lb" xmlns="http://www.w3.org/2000/svg" xmlns:xlink="http://www.w3.org/1999/xlink" width="1080" height="1080" viewBox="0 0 1080 1080">
  <defs>
    <clipPath id="clip-path2">
      <rect id="gatemask" width="108" height="108" transform="translate(1678 540)" fill="#fa0" stroke="#707070" stroke-width="1"/>
    </clipPath>
  </defs>
  <rect id="Rechteck_1" data-name="Rechteck 1" width="1080" height="1080" fill="#c1c1c1"/>
  <rect id="Rechteck_2" data-name="Rechteck 2" width="756" height="108" transform="translate(324 972)"/>
  <rect id="Rechteck_3" data-name="Rechteck 3" width="648" height="108" transform="translate(432 864)"/>
  <rect id="Rechteck_4" data-name="Rechteck 4" width="540" height="108" transform="translate(540 756)"/>
  <rect id="Rechteck_5" data-name="Rechteck 5" width="432" height="108" transform="translate(0 648)"/>
  <rect id="Rechteck_12" data-name="Rechteck 12" width="108" height="108" transform="translate(0 756)"/>
  <rect id="Rechteck_6" data-name="Rechteck 6" width="432" height="108" transform="translate(0 432)"/>
  <rect id="Rechteck_13" data-name="Rechteck 13" width="216" height="108" transform="translate(0 540)"/>
  <rect id="Rechteck_7" data-name="Rechteck 7" width="1080" height="108" transform="translate(0 324)"/>
  <rect id="Rechteck_19" data-name="Rechteck 19" width="324" height="108"/>
  <rect id="Rechteck_20" data-name="Rechteck 20" width="108" height="108" transform="translate(0 108)"/>
  <rect id="Rechteck_21" data-name="Rechteck 21" width="108" height="108" transform="translate(0 216)"/>
  <rect id="Rechteck_9" data-name="Rechteck 9" width="432" height="108" transform="translate(648 216)"/>
  <rect id="Rechteck_10" data-name="Rechteck 10" width="540" height="108" transform="translate(540 108)"/>
  <rect id="Rechteck_11" data-name="Rechteck 11" width="648" height="108" transform="translate(432)"/>
  <rect id="Rechteck_14" data-name="Rechteck 14" width="108" height="108" transform="translate(972 648)"/>
  <rect id="Rechteck_15" data-name="Rechteck 15" width="108" height="108" transform="translate(972 432)"/>
  <g id="gate" transform="translate(-1354 -540)">
    <g id="gatemaskgroup" clip-path2="url(#clip-path2)">
      <g id="gatebars">
        <line id="Linie_1" data-name="Linie 1" y1="134" x2="134" transform="translate(1567.5 527)" fill="none" stroke="#000" stroke-width="1"/>
        <line id="Linie_1-2" data-name="Linie 1" y1="134" x2="134" transform="translate(1582.5 527)" fill="none" stroke="#000" stroke-width="1"/>
        <line id="Linie_1-3" data-name="Linie 1" y1="134" x2="134" transform="translate(1597.5 527)" fill="none" stroke="#000" stroke-width="1"/>
        <line id="Linie_1-4" data-name="Linie 1" y1="134" x2="134" transform="translate(1612.5 527)" fill="none" stroke="#000" stroke-width="1"/>
        <line id="Linie_1-5" data-name="Linie 1" y1="134" x2="134" transform="translate(1627.5 527)" fill="none" stroke="#000" stroke-width="1"/>
        <line id="Linie_1-6" data-name="Linie 1" y1="134" x2="134" transform="translate(1642.5 527)" fill="none" stroke="#000" stroke-width="1"/>
        <line id="Linie_1-7" data-name="Linie 1" y1="134" x2="134" transform="translate(1657.5 527)" fill="none" stroke="#000" stroke-width="1"/>
        <line id="Linie_1-8" data-name="Linie 1" y1="134" x2="134" transform="translate(1672.5 527)" fill="none" stroke="#000" stroke-width="1"/>
        <line id="Linie_1-9" data-name="Linie 1" y1="134" x2="134" transform="translate(1687.5 527)" fill="none" stroke="#000" stroke-width="1"/>
        <line id="Linie_1-10" data-name="Linie 1" y1="134" x2="134" transform="translate(1702.5 527)" fill="none" stroke="#000" stroke-width="1"/>
        <line id="Linie_1-11" data-name="Linie 1" y1="134" x2="134" transform="translate(1717.5 527)" fill="none" stroke="#000" stroke-width="1"/>
        <line id="Linie_1-12" data-name="Linie 1" y1="134" x2="134" transform="translate(1732.5 527)" fill="none" stroke="#000" stroke-width="1"/>
        <line id="Linie_1-13" data-name="Linie 1" y1="134" x2="134" transform="translate(1747.5 527)" fill="none" stroke="#000" stroke-width="1"/>
        <line id="Linie_1-14" data-name="Linie 1" y1="134" x2="134" transform="translate(1762.5 527)" fill="none" stroke="#000" stroke-width="1"/>
      </g>
    </g>
    <g id="gateframe" transform="translate(1678 540)" fill="none" stroke="#000" stroke-width="5">
      <rect width="108" height="108" stroke="none"/>
      <rect x="2.5" y="2.5" width="103" height="103" fill="none"/>
    </g>
  </g>
  <g id="gate-2" data-name="gate" transform="translate(-706)">
    <g id="gatemaskgroup-2" data-name="gatemaskgroup" clip-path2="url(#clip-path2)">
      <g id="gatebars-2" data-name="gatebars">
        <line id="Linie_1-15" data-name="Linie 1" y1="134" x2="134" transform="translate(1567.5 527)" fill="none" stroke="#000" stroke-width="1"/>
        <line id="Linie_1-16" data-name="Linie 1" y1="134" x2="134" transform="translate(1582.5 527)" fill="none" stroke="#000" stroke-width="1"/>
        <line id="Linie_1-17" data-name="Linie 1" y1="134" x2="134" transform="translate(1597.5 527)" fill="none" stroke="#000" stroke-width="1"/>
        <line id="Linie_1-18" data-name="Linie 1" y1="134" x2="134" transform="translate(1612.5 527)" fill="none" stroke="#000" stroke-width="1"/>
        <line id="Linie_1-19" data-name="Linie 1" y1="134" x2="134" transform="translate(1627.5 527)" fill="none" stroke="#000" stroke-width="1"/>
        <line id="Linie_1-20" data-name="Linie 1" y1="134" x2="134" transform="translate(1642.5 527)" fill="none" stroke="#000" stroke-width="1"/>
        <line id="Linie_1-21" data-name="Linie 1" y1="134" x2="134" transform="translate(1657.5 527)" fill="none" stroke="#000" stroke-width="1"/>
        <line id="Linie_1-22" data-name="Linie 1" y1="134" x2="134" transform="translate(1672.5 527)" fill="none" stroke="#000" stroke-width="1"/>
        <line id="Linie_1-23" data-name="Linie 1" y1="134" x2="134" transform="translate(1687.5 527)" fill="none" stroke="#000" stroke-width="1"/>
        <line id="Linie_1-24" data-name="Linie 1" y1="134" x2="134" transform="translate(1702.5 527)" fill="none" stroke="#000" stroke-width="1"/>
        <line id="Linie_1-25" data-name="Linie 1" y1="134" x2="134" transform="translate(1717.5 527)" fill="none" stroke="#000" stroke-width="1"/>
        <line id="Linie_1-26" data-name="Linie 1" y1="134" x2="134" transform="translate(1732.5 527)" fill="none" stroke="#000" stroke-width="1"/>
        <line id="Linie_1-27" data-name="Linie 1" y1="134" x2="134" transform="translate(1747.5 527)" fill="none" stroke="#000" stroke-width="1"/>
        <line id="Linie_1-28" data-name="Linie 1" y1="134" x2="134" transform="translate(1762.5 527)" fill="none" stroke="#000" stroke-width="1"/>
      </g>
    </g>
    <g id="gateframe-2" data-name="gateframe" transform="translate(1678 540)" fill="none" stroke="#000" stroke-width="5">
      <rect width="108" height="108" stroke="none"/>
      <rect x="2.5" y="2.5" width="103" height="103" fill="none"/>
    </g>
  </g>
  <g id="key7-gate" transform="translate(349 29)" fill="none">
    <path d="M29,0,58,50H0Z" stroke="none"/>
    <path d="M 29.00000190734863 19.93150901794434 L 17.36027526855469 40 L 40.63972473144531 40 L 29.00000190734863 19.93150901794434 M 29.00000190734863 3.814697265625e-06 L 58 50 L 3.814697265625e-06 50 L 29.00000190734863 3.814697265625e-06 Z" stroke="none" fill="#ff0"/>
  </g>
  <g id="key1-gate" transform="translate(1001 569)" fill="none" stroke="lime" stroke-width="10">
    <circle cx="25" cy="25" r="25" stroke="none"/>
    <circle cx="25" cy="25" r="20" fill="none"/>
  </g>
  <g id="key1">
    <circle id="key1-hit" cx="40" cy="40" r="40" transform="translate(230 554)" fill="none" opacity="0.82"/>
    <g id="key1-symbol" transform="translate(245 569)" fill="none" stroke="lime" stroke-width="10">
      <circle cx="25" cy="25" r="25" stroke="none"/>
      <circle cx="25" cy="25" r="20" fill="none"/>
    </g>
  </g>
  <g id="key8">
    <circle id="key8-hit" cx="40" cy="40" r="40" transform="translate(122 230)" fill="none" opacity="0.82"/>
    <g id="key8-symbol" transform="translate(133 238)" fill="none">
      <path d="M29,0,58,50H0Z" stroke="none"/>
      <path d="M 29.00000190734863 19.93150901794434 L 17.36027526855469 40 L 40.63972473144531 40 L 29.00000190734863 19.93150901794434 M 29.00000190734863 3.814697265625e-06 L 58 50 L 3.814697265625e-06 50 L 29.00000190734863 3.814697265625e-06 Z" stroke="none" fill="blue"/>
    </g>
  </g>
  <circle id="character" cx="25" cy="25" r="25" transform="translate(29 1001)"/>
</svg>
