<svg id="lm" xmlns="http://www.w3.org/2000/svg" xmlns:xlink="http://www.w3.org/1999/xlink" width="1080" height="1080" viewBox="0 0 1080 1080">
  <defs>
    <clipPath id="clip-path6">
      <rect id="gatemask" width="108" height="108" transform="translate(1678 540)" fill="#fa0" stroke="#707070" stroke-width="1"/>
    </clipPath>
  </defs>
  <rect id="Rechteck_1" data-name="Rechteck 1" width="1080" height="1080" fill="#c1c1c1"/>
  <rect id="world-lm" data-name="Rechteck 2" width="648" height="108" transform="translate(432 972)"/>
  <rect id="world-lm" data-name="Rechteck 3" width="540" height="108" transform="translate(540 864)"/>
  <rect id="world-lm" data-name="Rechteck 4" width="324" height="108" transform="translate(756 756)"/>
  <rect id="world-lm" data-name="Rechteck 5" width="324" height="108" transform="translate(0 972)"/>
  <rect id="world-lm" data-name="Rechteck 6" width="540" height="108" transform="translate(0 432)"/>
  <rect id="world-lm" data-name="Rechteck 13" width="108" height="324" transform="translate(0 540)"/>
  <rect id="world-lm" data-name="Rechteck 125" width="108" height="108" transform="translate(324 540)"/>
  <rect id="world-lm" data-name="Rechteck 23" width="216" height="108" transform="translate(0 864)"/>
  <rect id="world-lm" data-name="Rechteck 124" width="216" height="108" transform="translate(324 540) rotate(90)"/>
  <rect id="world-lm" data-name="Rechteck 7" width="324" height="108" transform="translate(0 324)"/>
  <rect id="world-lm" data-name="Rechteck 19" width="324" height="108" transform="translate(756)"/>
  <rect id="world-lm" data-name="Rechteck 8" width="432" height="108" transform="translate(648 324)"/>
  <rect id="world-lm" data-name="Rechteck 9" width="432" height="108" transform="translate(0 216)"/>
  <rect id="world-lm" data-name="Rechteck 10" width="540" height="108" transform="translate(0 108)"/>
  <rect id="world-lm" data-name="Rechteck 14" width="108" height="108" transform="translate(972 648)"/>
  <rect id="world-lm" data-name="Rechteck 15" width="108" height="108" transform="translate(972 432)"/>
  <rect id="world-lm" data-name="Rechteck 20" width="108" height="108" transform="translate(972 108)"/>
  <rect id="world-lm" data-name="Rechteck 21" width="216" height="108" transform="translate(864 216)"/>
  <rect id="world-lm" data-name="Rechteck 11" width="648" height="108"/>
  <g id="gate" transform="translate(-1030 -540)">
    <g id="gatemaskgroup" clip-path="url(#clip-path6)">
      <g id="gatebars">
        <line id="Linie_1" data-name="Linie 1" y1="134" x2="134" transform="translate(1567.5 527)" fill="none" stroke="#000" stroke-width="1"/>
        <line id="Linie_1-2" data-name="Linie 1" y1="134" x2="134" transform="translate(1582.5 527)" fill="none" stroke="#000" stroke-width="1"/>
        <line id="Linie_1-3" data-name="Linie 1" y1="134" x2="134" transform="translate(1597.5 527)" fill="none" stroke="#000" stroke-width="1"/>
        <line id="Linie_1-4" data-name="Linie 1" y1="134" x2="134" transform="translate(1612.5 527)" fill="none" stroke="#000" stroke-width="1"/>
        <line id="Linie_1-5" data-name="Linie 1" y1="134" x2="134" transform="translate(1627.5 527)" fill="none" stroke="#000" stroke-width="1"/>
        <line id="Linie_1-6" data-name="Linie 1" y1="134" x2="134" transform="translate(1642.5 527)" fill="none" stroke="#000" stroke-width="1"/>
        <line id="Linie_1-7" data-name="Linie 1" y1="134" x2="134" transform="translate(1657.5 527)" fill="none" stroke="#000" stroke-width="1"/>
        <line id="Linie_1-8" data-name="Linie 1" y1="134" x2="134" transform="translate(1672.5 527)" fill="none" stroke="#000" stroke-width="1"/>
        <line id="Linie_1-9" data-name="Linie 1" y1="134" x2="134" transform="translate(1687.5 527)" fill="none" stroke="#000" stroke-width="1"/>
        <line id="Linie_1-10" data-name="Linie 1" y1="134" x2="134" transform="translate(1702.5 527)" fill="none" stroke="#000" stroke-width="1"/>
        <line id="Linie_1-11" data-name="Linie 1" y1="134" x2="134" transform="translate(1717.5 527)" fill="none" stroke="#000" stroke-width="1"/>
        <line id="Linie_1-12" data-name="Linie 1" y1="134" x2="134" transform="translate(1732.5 527)" fill="none" stroke="#000" stroke-width="1"/>
        <line id="Linie_1-13" data-name="Linie 1" y1="134" x2="134" transform="translate(1747.5 527)" fill="none" stroke="#000" stroke-width="1"/>
        <line id="Linie_1-14" data-name="Linie 1" y1="134" x2="134" transform="translate(1762.5 527)" fill="none" stroke="#000" stroke-width="1"/>
      </g>
    </g>
    <g id="gateframe" transform="translate(1678 540)" fill="none" stroke="#000" stroke-width="5">
      <rect width="108" height="108" stroke="none"/>
      <rect x="2.5" y="2.5" width="103" height="103" fill="none"/>
    </g>
  </g>
  <g id="gate-2" data-name="gate" transform="translate(-706)">
    <g id="gatemaskgroup-2" data-name="gatemaskgroup" clip-path="url(#clip-path6)">
      <g id="gatebars-2" data-name="gatebars">
        <line id="Linie_1-15" data-name="Linie 1" y1="134" x2="134" transform="translate(1567.5 527)" fill="none" stroke="#000" stroke-width="1"/>
        <line id="Linie_1-16" data-name="Linie 1" y1="134" x2="134" transform="translate(1582.5 527)" fill="none" stroke="#000" stroke-width="1"/>
        <line id="Linie_1-17" data-name="Linie 1" y1="134" x2="134" transform="translate(1597.5 527)" fill="none" stroke="#000" stroke-width="1"/>
        <line id="Linie_1-18" data-name="Linie 1" y1="134" x2="134" transform="translate(1612.5 527)" fill="none" stroke="#000" stroke-width="1"/>
        <line id="Linie_1-19" data-name="Linie 1" y1="134" x2="134" transform="translate(1627.5 527)" fill="none" stroke="#000" stroke-width="1"/>
        <line id="Linie_1-20" data-name="Linie 1" y1="134" x2="134" transform="translate(1642.5 527)" fill="none" stroke="#000" stroke-width="1"/>
        <line id="Linie_1-21" data-name="Linie 1" y1="134" x2="134" transform="translate(1657.5 527)" fill="none" stroke="#000" stroke-width="1"/>
        <line id="Linie_1-22" data-name="Linie 1" y1="134" x2="134" transform="translate(1672.5 527)" fill="none" stroke="#000" stroke-width="1"/>
        <line id="Linie_1-23" data-name="Linie 1" y1="134" x2="134" transform="translate(1687.5 527)" fill="none" stroke="#000" stroke-width="1"/>
        <line id="Linie_1-24" data-name="Linie 1" y1="134" x2="134" transform="translate(1702.5 527)" fill="none" stroke="#000" stroke-width="1"/>
        <line id="Linie_1-25" data-name="Linie 1" y1="134" x2="134" transform="translate(1717.5 527)" fill="none" stroke="#000" stroke-width="1"/>
        <line id="Linie_1-26" data-name="Linie 1" y1="134" x2="134" transform="translate(1732.5 527)" fill="none" stroke="#000" stroke-width="1"/>
        <line id="Linie_1-27" data-name="Linie 1" y1="134" x2="134" transform="translate(1747.5 527)" fill="none" stroke="#000" stroke-width="1"/>
        <line id="Linie_1-28" data-name="Linie 1" y1="134" x2="134" transform="translate(1762.5 527)" fill="none" stroke="#000" stroke-width="1"/>
      </g>
    </g>
    <g id="gateframe-2" data-name="gateframe" transform="translate(1678 540)" fill="none" stroke="#000" stroke-width="5">
      <rect width="108" height="108" stroke="none"/>
      <rect x="2.5" y="2.5" width="103" height="103" fill="none"/>
    </g>
  </g>
  <g id="gate-3" data-name="gate" transform="translate(-1354 432)">
    <g id="gatemaskgroup-3" data-name="gatemaskgroup" clip-path="url(#clip-path6)">
      <g id="gatebars-3" data-name="gatebars">
        <line id="Linie_1-29" data-name="Linie 1" y1="134" x2="134" transform="translate(1567.5 527)" fill="none" stroke="#000" stroke-width="1"/>
        <line id="Linie_1-30" data-name="Linie 1" y1="134" x2="134" transform="translate(1582.5 527)" fill="none" stroke="#000" stroke-width="1"/>
        <line id="Linie_1-31" data-name="Linie 1" y1="134" x2="134" transform="translate(1597.5 527)" fill="none" stroke="#000" stroke-width="1"/>
        <line id="Linie_1-32" data-name="Linie 1" y1="134" x2="134" transform="translate(1612.5 527)" fill="none" stroke="#000" stroke-width="1"/>
        <line id="Linie_1-33" data-name="Linie 1" y1="134" x2="134" transform="translate(1627.5 527)" fill="none" stroke="#000" stroke-width="1"/>
        <line id="Linie_1-34" data-name="Linie 1" y1="134" x2="134" transform="translate(1642.5 527)" fill="none" stroke="#000" stroke-width="1"/>
        <line id="Linie_1-35" data-name="Linie 1" y1="134" x2="134" transform="translate(1657.5 527)" fill="none" stroke="#000" stroke-width="1"/>
        <line id="Linie_1-36" data-name="Linie 1" y1="134" x2="134" transform="translate(1672.5 527)" fill="none" stroke="#000" stroke-width="1"/>
        <line id="Linie_1-37" data-name="Linie 1" y1="134" x2="134" transform="translate(1687.5 527)" fill="none" stroke="#000" stroke-width="1"/>
        <line id="Linie_1-38" data-name="Linie 1" y1="134" x2="134" transform="translate(1702.5 527)" fill="none" stroke="#000" stroke-width="1"/>
        <line id="Linie_1-39" data-name="Linie 1" y1="134" x2="134" transform="translate(1717.5 527)" fill="none" stroke="#000" stroke-width="1"/>
        <line id="Linie_1-40" data-name="Linie 1" y1="134" x2="134" transform="translate(1732.5 527)" fill="none" stroke="#000" stroke-width="1"/>
        <line id="Linie_1-41" data-name="Linie 1" y1="134" x2="134" transform="translate(1747.5 527)" fill="none" stroke="#000" stroke-width="1"/>
        <line id="Linie_1-42" data-name="Linie 1" y1="134" x2="134" transform="translate(1762.5 527)" fill="none" stroke="#000" stroke-width="1"/>
      </g>
    </g>
    <g id="gateframe-3" data-name="gateframe" transform="translate(1678 540)" fill="none" stroke="#000" stroke-width="5">
      <rect width="108" height="108" stroke="none"/>
      <rect x="2.5" y="2.5" width="103" height="103" fill="none"/>
    </g>
  </g>
  <g id="key3">
    <circle id="key3-hit" cx="40" cy="40" r="40" transform="translate(122 554)" fill="none" opacity="0.82"/>
    <g id="key3-symbol" transform="translate(135.5 569)" fill="none">
      <path d="M26.5,0,53,19.1,42.878,50H10.122L0,19.1Z" stroke="none"/>
      <path d="M 26.5 12.32637023925781 L 11.77961349487305 22.93521308898926 L 17.36931991577148 40 L 35.63068008422852 40 L 41.22038650512695 22.93521308898926 L 26.5 12.32637023925781 M 26.5 0 L 53 19.09830093383789 L 42.87789916992188 50 L 10.12210083007813 50 L 0 19.09830093383789 L 26.5 0 Z" stroke="none" fill="#f90"/>
    </g>
  </g>
  <g id="key7-gate" transform="translate(349 1001)" fill="none">
    <path d="M29,0,58,50H0Z" stroke="none"/>
    <path d="M 29.00000190734863 19.93150901794434 L 17.36027526855469 40 L 40.63972473144531 40 L 29.00000190734863 19.93150901794434 M 29.00000190734863 3.814697265625e-06 L 58 50 L 3.814697265625e-06 50 L 29.00000190734863 3.814697265625e-06 Z" stroke="none" fill="#ff0"/>
  </g>
  <g id="key4-gate" transform="translate(677 29)" fill="none" stroke="red" stroke-width="10">
    <rect width="50" height="50" stroke="none"/>
    <rect x="5" y="5" width="40" height="40" fill="none"/>
  </g>
  <circle id="character-lm" cx="25" cy="25" r="25" transform="translate(893 569)"/>
</svg>
