<svg id="mm" xmlns="http://www.w3.org/2000/svg" xmlns:xlink="http://www.w3.org/1999/xlink" width="1080" height="1080" viewBox="0 0 1080 1080">
  <defs>
    <clipPath id="clip-path5">
      <rect id="gatemask" width="108" height="108" transform="translate(1678 540)" fill="#fa0" stroke="#707070" stroke-width="1"/>
    </clipPath>
  </defs>
  <rect id="Rechteck_1" data-name="Rechteck 1" width="1080" height="1080" fill="#c1c1c1"/>
  <rect id="world-mm" data-name="Rechteck 36" width="108" height="108" transform="translate(0 648)"/>
  <rect id="world-mm" data-name="Rechteck 56" width="108" height="540"/>
  <rect id="world-mm" data-name="Rechteck 51" width="216" height="108" transform="translate(864 108)"/>
  <rect id="world-mm" data-name="Rechteck 52" width="108" height="432" transform="translate(972 216)"/>
  <rect id="world-mm" data-name="Rechteck 50" width="324" height="108" transform="translate(756)"/>
  <rect id="world-mm" data-name="Rechteck 37" width="216" height="108" transform="translate(0 756)"/>
  <rect id="world-mm" data-name="Rechteck 38" width="432" height="108" transform="translate(0 864)"/>
  <rect id="world-mm" data-name="Rechteck 40" width="324" height="216" transform="translate(756 864)"/>
  <rect id="world-mm" data-name="Rechteck 43" width="216" height="108" transform="translate(648 648)"/>
  <rect id="world-mm" data-name="Rechteck 44" width="324" height="108" transform="translate(540 540)"/>
  <rect id="world-mm" data-name="Rechteck 45" width="540" height="108" transform="translate(324 432)"/>
  <rect id="world-mm" data-name="Rechteck 46" width="432" height="108" transform="translate(324 324)"/>
  <rect id="world-mm" data-name="Rechteck 47" width="540" height="108" transform="translate(216 216)"/>
  <rect id="world-mm" data-name="Rechteck 48" width="216" height="108" transform="translate(432 108)"/>
  <rect id="world-mm" data-name="Rechteck 49" width="540" height="108" transform="translate(108)"/>
  <rect id="world-mm" data-name="Rechteck 41" width="432" height="108" transform="translate(648 756)"/>
  <rect id="world-mm" data-name="Rechteck 39" width="648" height="108" transform="translate(0 972)"/>
  <g id="key7">
    <circle id="key7-hit" cx="40" cy="40" r="40" transform="translate(770 338)" fill="none" opacity="0.82"/>
    <g id="key7-symbol" transform="translate(781 346)" fill="none">
      <path d="M29,0,58,50H0Z" stroke="none"/>
      <path d="M 29.00000190734863 19.93150901794434 L 17.36027526855469 40 L 40.63972473144531 40 L 29.00000190734863 19.93150901794434 M 29.00000190734863 3.814697265625e-06 L 58 50 L 3.814697265625e-06 50 L 29.00000190734863 3.814697265625e-06 Z" stroke="none" fill="#ff0"/>
    </g>
  </g>
  <g id="gate" transform="translate(-1030 432)">
    <g id="gatemaskgroup" clip-path="url(#clip-path5)">
      <g id="gatebars">
        <line id="Linie_1" data-name="Linie 1" y1="134" x2="134" transform="translate(1567.5 527)" fill="none" stroke="#000" stroke-width="1"/>
        <line id="Linie_1-2" data-name="Linie 1" y1="134" x2="134" transform="translate(1582.5 527)" fill="none" stroke="#000" stroke-width="1"/>
        <line id="Linie_1-3" data-name="Linie 1" y1="134" x2="134" transform="translate(1597.5 527)" fill="none" stroke="#000" stroke-width="1"/>
        <line id="Linie_1-4" data-name="Linie 1" y1="134" x2="134" transform="translate(1612.5 527)" fill="none" stroke="#000" stroke-width="1"/>
        <line id="Linie_1-5" data-name="Linie 1" y1="134" x2="134" transform="translate(1627.5 527)" fill="none" stroke="#000" stroke-width="1"/>
        <line id="Linie_1-6" data-name="Linie 1" y1="134" x2="134" transform="translate(1642.5 527)" fill="none" stroke="#000" stroke-width="1"/>
        <line id="Linie_1-7" data-name="Linie 1" y1="134" x2="134" transform="translate(1657.5 527)" fill="none" stroke="#000" stroke-width="1"/>
        <line id="Linie_1-8" data-name="Linie 1" y1="134" x2="134" transform="translate(1672.5 527)" fill="none" stroke="#000" stroke-width="1"/>
        <line id="Linie_1-9" data-name="Linie 1" y1="134" x2="134" transform="translate(1687.5 527)" fill="none" stroke="#000" stroke-width="1"/>
        <line id="Linie_1-10" data-name="Linie 1" y1="134" x2="134" transform="translate(1702.5 527)" fill="none" stroke="#000" stroke-width="1"/>
        <line id="Linie_1-11" data-name="Linie 1" y1="134" x2="134" transform="translate(1717.5 527)" fill="none" stroke="#000" stroke-width="1"/>
        <line id="Linie_1-12" data-name="Linie 1" y1="134" x2="134" transform="translate(1732.5 527)" fill="none" stroke="#000" stroke-width="1"/>
        <line id="Linie_1-13" data-name="Linie 1" y1="134" x2="134" transform="translate(1747.5 527)" fill="none" stroke="#000" stroke-width="1"/>
        <line id="Linie_1-14" data-name="Linie 1" y1="134" x2="134" transform="translate(1762.5 527)" fill="none" stroke="#000" stroke-width="1"/>
      </g>
    </g>
    <g id="gateframe" transform="translate(1678 540)" fill="none" stroke="#000" stroke-width="5">
      <rect width="108" height="108" stroke="none"/>
      <rect x="2.5" y="2.5" width="103" height="103" fill="none"/>
    </g>
  </g>
  <g id="gate-2" data-name="gate" transform="translate(-1678)">
    <g id="gatemaskgroup-2" data-name="gatemaskgroup" clip-path="url(#clip-path5)">
      <g id="gatebars-2" data-name="gatebars">
        <line id="Linie_1-15" data-name="Linie 1" y1="134" x2="134" transform="translate(1567.5 527)" fill="none" stroke="#000" stroke-width="1"/>
        <line id="Linie_1-16" data-name="Linie 1" y1="134" x2="134" transform="translate(1582.5 527)" fill="none" stroke="#000" stroke-width="1"/>
        <line id="Linie_1-17" data-name="Linie 1" y1="134" x2="134" transform="translate(1597.5 527)" fill="none" stroke="#000" stroke-width="1"/>
        <line id="Linie_1-18" data-name="Linie 1" y1="134" x2="134" transform="translate(1612.5 527)" fill="none" stroke="#000" stroke-width="1"/>
        <line id="Linie_1-19" data-name="Linie 1" y1="134" x2="134" transform="translate(1627.5 527)" fill="none" stroke="#000" stroke-width="1"/>
        <line id="Linie_1-20" data-name="Linie 1" y1="134" x2="134" transform="translate(1642.5 527)" fill="none" stroke="#000" stroke-width="1"/>
        <line id="Linie_1-21" data-name="Linie 1" y1="134" x2="134" transform="translate(1657.5 527)" fill="none" stroke="#000" stroke-width="1"/>
        <line id="Linie_1-22" data-name="Linie 1" y1="134" x2="134" transform="translate(1672.5 527)" fill="none" stroke="#000" stroke-width="1"/>
        <line id="Linie_1-23" data-name="Linie 1" y1="134" x2="134" transform="translate(1687.5 527)" fill="none" stroke="#000" stroke-width="1"/>
        <line id="Linie_1-24" data-name="Linie 1" y1="134" x2="134" transform="translate(1702.5 527)" fill="none" stroke="#000" stroke-width="1"/>
        <line id="Linie_1-25" data-name="Linie 1" y1="134" x2="134" transform="translate(1717.5 527)" fill="none" stroke="#000" stroke-width="1"/>
        <line id="Linie_1-26" data-name="Linie 1" y1="134" x2="134" transform="translate(1732.5 527)" fill="none" stroke="#000" stroke-width="1"/>
        <line id="Linie_1-27" data-name="Linie 1" y1="134" x2="134" transform="translate(1747.5 527)" fill="none" stroke="#000" stroke-width="1"/>
        <line id="Linie_1-28" data-name="Linie 1" y1="134" x2="134" transform="translate(1762.5 527)" fill="none" stroke="#000" stroke-width="1"/>
      </g>
    </g>
    <g id="gateframe-2" data-name="gateframe" transform="translate(1678 540)" fill="none" stroke="#000" stroke-width="5">
      <rect width="108" height="108" stroke="none"/>
      <rect x="2.5" y="2.5" width="103" height="103" fill="none"/>
    </g>
  </g>
  <g id="gate-3" data-name="gate" transform="translate(-1030 -540)">
    <g id="gatemaskgroup-3" data-name="gatemaskgroup" clip-path="url(#clip-path5)">
      <g id="gatebars-3" data-name="gatebars">
        <line id="Linie_1-29" data-name="Linie 1" y1="134" x2="134" transform="translate(1567.5 527)" fill="none" stroke="#000" stroke-width="1"/>
        <line id="Linie_1-30" data-name="Linie 1" y1="134" x2="134" transform="translate(1582.5 527)" fill="none" stroke="#000" stroke-width="1"/>
        <line id="Linie_1-31" data-name="Linie 1" y1="134" x2="134" transform="translate(1597.5 527)" fill="none" stroke="#000" stroke-width="1"/>
        <line id="Linie_1-32" data-name="Linie 1" y1="134" x2="134" transform="translate(1612.5 527)" fill="none" stroke="#000" stroke-width="1"/>
        <line id="Linie_1-33" data-name="Linie 1" y1="134" x2="134" transform="translate(1627.5 527)" fill="none" stroke="#000" stroke-width="1"/>
        <line id="Linie_1-34" data-name="Linie 1" y1="134" x2="134" transform="translate(1642.5 527)" fill="none" stroke="#000" stroke-width="1"/>
        <line id="Linie_1-35" data-name="Linie 1" y1="134" x2="134" transform="translate(1657.5 527)" fill="none" stroke="#000" stroke-width="1"/>
        <line id="Linie_1-36" data-name="Linie 1" y1="134" x2="134" transform="translate(1672.5 527)" fill="none" stroke="#000" stroke-width="1"/>
        <line id="Linie_1-37" data-name="Linie 1" y1="134" x2="134" transform="translate(1687.5 527)" fill="none" stroke="#000" stroke-width="1"/>
        <line id="Linie_1-38" data-name="Linie 1" y1="134" x2="134" transform="translate(1702.5 527)" fill="none" stroke="#000" stroke-width="1"/>
        <line id="Linie_1-39" data-name="Linie 1" y1="134" x2="134" transform="translate(1717.5 527)" fill="none" stroke="#000" stroke-width="1"/>
        <line id="Linie_1-40" data-name="Linie 1" y1="134" x2="134" transform="translate(1732.5 527)" fill="none" stroke="#000" stroke-width="1"/>
        <line id="Linie_1-41" data-name="Linie 1" y1="134" x2="134" transform="translate(1747.5 527)" fill="none" stroke="#000" stroke-width="1"/>
        <line id="Linie_1-42" data-name="Linie 1" y1="134" x2="134" transform="translate(1762.5 527)" fill="none" stroke="#000" stroke-width="1"/>
      </g>
    </g>
    <g id="gateframe-3" data-name="gateframe" transform="translate(1678 540)" fill="none" stroke="#000" stroke-width="5">
      <rect width="108" height="108" stroke="none"/>
      <rect x="2.5" y="2.5" width="103" height="103" fill="none"/>
    </g>
  </g>
  <g id="gate-4" data-name="gate" transform="translate(-706 108)">
    <g id="gatemaskgroup-4" data-name="gatemaskgroup" clip-path="url(#clip-path5)">
      <g id="gatebars-4" data-name="gatebars">
        <line id="Linie_1-43" data-name="Linie 1" y1="134" x2="134" transform="translate(1567.5 527)" fill="none" stroke="#000" stroke-width="1"/>
        <line id="Linie_1-44" data-name="Linie 1" y1="134" x2="134" transform="translate(1582.5 527)" fill="none" stroke="#000" stroke-width="1"/>
        <line id="Linie_1-45" data-name="Linie 1" y1="134" x2="134" transform="translate(1597.5 527)" fill="none" stroke="#000" stroke-width="1"/>
        <line id="Linie_1-46" data-name="Linie 1" y1="134" x2="134" transform="translate(1612.5 527)" fill="none" stroke="#000" stroke-width="1"/>
        <line id="Linie_1-47" data-name="Linie 1" y1="134" x2="134" transform="translate(1627.5 527)" fill="none" stroke="#000" stroke-width="1"/>
        <line id="Linie_1-48" data-name="Linie 1" y1="134" x2="134" transform="translate(1642.5 527)" fill="none" stroke="#000" stroke-width="1"/>
        <line id="Linie_1-49" data-name="Linie 1" y1="134" x2="134" transform="translate(1657.5 527)" fill="none" stroke="#000" stroke-width="1"/>
        <line id="Linie_1-50" data-name="Linie 1" y1="134" x2="134" transform="translate(1672.5 527)" fill="none" stroke="#000" stroke-width="1"/>
        <line id="Linie_1-51" data-name="Linie 1" y1="134" x2="134" transform="translate(1687.5 527)" fill="none" stroke="#000" stroke-width="1"/>
        <line id="Linie_1-52" data-name="Linie 1" y1="134" x2="134" transform="translate(1702.5 527)" fill="none" stroke="#000" stroke-width="1"/>
        <line id="Linie_1-53" data-name="Linie 1" y1="134" x2="134" transform="translate(1717.5 527)" fill="none" stroke="#000" stroke-width="1"/>
        <line id="Linie_1-54" data-name="Linie 1" y1="134" x2="134" transform="translate(1732.5 527)" fill="none" stroke="#000" stroke-width="1"/>
        <line id="Linie_1-55" data-name="Linie 1" y1="134" x2="134" transform="translate(1747.5 527)" fill="none" stroke="#000" stroke-width="1"/>
        <line id="Linie_1-56" data-name="Linie 1" y1="134" x2="134" transform="translate(1762.5 527)" fill="none" stroke="#000" stroke-width="1"/>
      </g>
    </g>
    <g id="gateframe-4" data-name="gateframe" transform="translate(1678 540)" fill="none" stroke="#000" stroke-width="5">
      <rect width="108" height="108" stroke="none"/>
      <rect x="2.5" y="2.5" width="103" height="103" fill="none"/>
    </g>
  </g>
  <g id="key6-gate" transform="translate(1001 677)" fill="none" stroke="#f0f" stroke-width="10">
    <circle cx="25" cy="25" r="25" stroke="none"/>
    <circle cx="25" cy="25" r="20" fill="none"/>
  </g>
  <g id="key6-gate-2" data-name="key6-gate" transform="translate(677 29)" fill="none" stroke="#f0f" stroke-width="10">
    <circle cx="25" cy="25" r="25" stroke="none"/>
    <circle cx="25" cy="25" r="20" fill="none"/>
  </g>
  <g id="key2-gate" transform="translate(677 1001)" fill="none" stroke="aqua" stroke-width="10">
    <rect width="50" height="50" stroke="none"/>
    <rect x="5" y="5" width="40" height="40" fill="none"/>
  </g>
  <circle id="character-mm" cx="25" cy="25" r="25" transform="translate(245 353)"/>
</svg>
